# xmcd CD database file
#
# Track frame offsets:
#	150
#	17886
#	38157
#	52120
#	76669
#	89137
#	110674
#	123593
#	141815
#	158269
#
# Disc length: 2407 seconds
#
# Revision: 2
# Processed by: cddbd v1.5.2PL0 Copyright (c) Steve Scherf et al.
# Submitted via: CDex 1.51
#
DISCID=7f09650a
DTITLE=Tom Brosseau - Cavalier
DYEAR=2007
DGENRE=Pop
TTITLE0=Amory [all w,vo,g TB] [John Parish org,trb,rcrdr]
TTITLE1=Brass Ring Blues
TTITLE2=Committed To Memory [Jeremy Hogg slide,JP d]
TTITLE3=My Heart Belongs To The Sea [JP p]
TTITLE4=Brand New Safe
TTITLE5=My Peggy Dear
TTITLE6=I Want To Make This Moment Last [JP p]
TTITLE7=Instructions To Meet The Devil [JP org]
TTITLE8=I'm Travelling The River On The Dakota Queen
TTITLE9=Kiss My Lips [JP b,d]
EXTD=YEAR: 2007
EXTT0=
EXTT1=
EXTT2=
EXTT3=
EXTT4=
EXTT5=
EXTT6=
EXTT7=
EXTT8=
EXTT9=
PLAYORDER=
